<svg width="416px" height="416px" viewBox="0 0 416 416" version="1.1" xmlns="http://www.w3.org/2000/svg" xmlns:xlink="http://www.w3.org/1999/xlink">
    <g id="Page-1" stroke="none" stroke-width="1" fill="none" fill-rule="evenodd">
        <g id="checked02" fill-rule="nonzero">
            <path d="M193.306,282.645 C188.604,282.645 184.424,280.555 181.812,277.421 L102.922,191.739 C97.175,185.47 97.698,175.543 103.967,169.796 C110.236,164.049 120.163,164.572 125.91,170.841 L193.828,244.506 L381.91,56.947 C388.179,50.678 398.106,50.678 403.853,56.947 C410.122,63.216 410.122,73.143 403.853,78.89 L204.278,277.943 C201.665,281.078 197.486,282.645 193.306,282.645 Z" id="Shape" fill="#4DCFE0"></path>
            <path d="M207.935,415.869 C93.518,415.869 0,322.351 0,207.935 C0,93.519 93.518,0 207.935,0 C216.817,0 223.608,6.792 223.608,15.673 C223.608,24.554 216.816,31.346 207.935,31.346 C110.759,31.346 31.347,110.758 31.347,207.934 C31.347,305.11 110.759,384.522 207.935,384.522 C305.111,384.522 384.523,305.11 384.523,207.934 C384.523,199.052 391.315,192.261 400.196,192.261 C409.077,192.261 415.869,199.053 415.869,207.934 C415.869,322.351 322.351,415.869 207.935,415.869 Z" id="Shape" fill="#1185E0"></path>
        </g>
    </g>
</svg>
