<svg width="512px" height="512px" viewBox="0 0 512 512" version="1.1" xmlns="http://www.w3.org/2000/svg" xmlns:xlink="http://www.w3.org/1999/xlink">
    <defs>
        <linearGradient x1="0%" y1="50%" x2="100%" y2="50%" id="linearGradient-1">
            <stop stop-color="#31D8FF" offset="0%"></stop>
            <stop stop-color="#FF80FF" offset="100%"></stop>
        </linearGradient>
    </defs>
    <g id="Page-1" stroke="none" stroke-width="1" fill="none" fill-rule="evenodd">
        <g id="checked03" fill-rule="nonzero">
            <path d="M512,256 C512,397.386719 397.386719,512 256,512 C114.613281,512 0,397.386719 0,256 C0,114.613281 114.613281,0 256,0 C397.386719,0 512,114.613281 512,256 Z" id="Shape" fill="url(#linearGradient-1)"></path>
            <path d="M175,395.246094 C170.964844,395.246094 167.097656,393.617188 164.273438,390.734375 L83.273438,307.902344 C77.484375,301.980469 77.589844,292.484375 83.511719,286.691406 C89.433594,280.898438 98.929688,281.003906 104.722656,286.929688 L174.996094,358.789062 L407.273438,121.265625 C413.066406,115.34375 422.5625,115.238281 428.484375,121.03125 C434.410156,126.820312 434.515625,136.320312 428.722656,142.242188 L185.722656,390.734375 C182.902344,393.617188 179.035156,395.246094 175,395.246094 Z" id="Shape" fill="#FFFFFF"></path>
        </g>
    </g>
</svg>
