<svg version="1.1" id="Capa_1" xmlns="http://www.w3.org/2000/svg" xmlns:xlink="http://www.w3.org/1999/xlink" x="0px" y="0px" viewBox="0 0 512 512" style="enable-background:new 0 0 512 512;" xml:space="preserve">
    <path style="fill:#454545;" d="M361.578,118.819c2.631-0.009,5.244,0.344,7.768,1.059l-14.742,19.421l-14.036-19.421l-0.088-0.177
	c2.304-0.609,4.679-0.909,7.062-0.883C347.542,118.819,361.578,118.819,361.578,118.819z" />
    <g>
        <rect x="308.966" y="459.034" style="fill:#5B5B5B;" width="97.103" height="17.655" />
        <rect x="379.586" y="423.724" style="fill:#5B5B5B;" width="26.483" height="17.655" />
        <rect x="105.931" y="326.621" style="fill:#5B5B5B;" width="300.138" height="17.655" />
        <rect x="105.931" y="282.483" style="fill:#5B5B5B;" width="300.138" height="17.655" />
        <rect x="105.931" y="238.345" style="fill:#5B5B5B;" width="300.138" height="17.655" />
        <rect x="344.276" y="423.724" style="fill:#5B5B5B;" width="26.483" height="17.655" />
    </g>
    <path style="fill:#168DE2;" d="M369.346,119.879c13.038,3.46,22.104,15.281,22.069,28.778v37.694h-36.811v-47.051L369.346,119.879z" />
    <path style="fill:#F9B544;" d="M371.377,51.2c4.511,4.52,7.053,10.646,7.062,17.037v16.154c0,13.33-10.814,24.143-24.143,24.143
	c-13.33,0-24.143-10.814-24.143-24.143V68.237c0.026-13.33,10.858-24.117,24.188-24.099C360.739,44.085,366.883,46.636,371.377,51.2
	z" />
    <path style="fill:#168DE2;" d="M354.604,185.821v0.53h-36.811v-37.694c-0.026-13.736,9.348-25.697,22.687-28.954l0.088,0.177
	l14.036,19.421V185.821z" />
    <path style="fill:#EBEBEB;" d="M406.069,441.379v-17.655h-26.483v17.655H406.069z M335.448,441.379v-17.655h-26.483v17.655H335.448z
	 M406.069,459.034h-97.103v17.655h97.103V459.034z M369.346,119.879c-2.525-0.715-5.138-1.068-7.768-1.059h-14.036
	c-2.383-0.026-4.758,0.274-7.062,0.883c-13.339,3.257-22.713,15.219-22.687,28.954v37.694h73.622v-37.694
	C391.451,135.159,382.385,123.339,369.346,119.879z M354.339,108.491c13.294,0.018,24.082-10.752,24.099-24.046
	c0-0.018,0-0.035,0-0.053V68.237c-0.009-6.391-2.551-12.518-7.062-17.037c-4.493-4.564-10.637-7.115-17.037-7.062
	c-13.33-0.018-24.161,10.77-24.188,24.099v16.154C330.178,97.721,341.01,108.509,354.339,108.491z M370.759,441.379v-17.655h-26.483
	v17.655H370.759z M105.931,79.448v17.655h167.724V79.448H105.931z M105.931,176.552v17.655h167.724v-17.655H105.931z M105.931,256
	h300.138v-17.655H105.931V256z M105.931,300.138h300.138v-17.655H105.931V300.138z M105.931,370.759v17.655h158.897v-17.655H105.931
	z M105.931,344.276h300.138v-17.655H105.931V344.276z M273.655,150.069v-17.655H105.931v17.655H273.655z M273.655,52.966V35.31
	H105.931v17.655H273.655z M450.207,0v512H61.793V0H450.207z" />
    <g>
        <rect x="308.966" y="423.724" style="fill:#5B5B5B;" width="26.483" height="17.655" />
        <rect x="105.931" y="176.552" style="fill:#5B5B5B;" width="167.724" height="17.655" />
        <rect x="105.931" y="132.414" style="fill:#5B5B5B;" width="167.724" height="17.655" />
        <rect x="105.931" y="79.448" style="fill:#5B5B5B;" width="167.724" height="17.655" />
        <rect x="105.931" y="35.31" style="fill:#5B5B5B;" width="167.724" height="17.655" />
        <rect x="105.931" y="370.759" style="fill:#5B5B5B;" width="158.897" height="17.655" />
    </g>
</svg>
