<svg width="512px" height="416px" viewBox="0 0 512 416" version="1.1" xmlns="http://www.w3.org/2000/svg" xmlns:xlink="http://www.w3.org/1999/xlink">
    <g id="Page-1" stroke="none" stroke-width="1" fill="none" fill-rule="evenodd">
        <g id="friendsHandsUp" fill-rule="nonzero">
            <path d="M261.089,3.541 C254.598,-1.459 245.285,-0.249 240.287,6.24 L179.353,85.348 L157.8,113.328 L110.895,113.328 L77.207,102.248 L59.761,96.51 L27.449,44.261 C23.139,37.293 13.997,35.139 7.033,39.448 C0.066,43.757 -2.089,52.898 2.22,59.865 L37.377,116.713 C39.214,119.683 42.04,121.911 45.358,123.001 C53.712,125.713 60.875,128.054 67.044,130.079 L67.027,130.127 L98.073,141.366 L98.073,255.471 L176.639,255.471 L176.639,137.455 C176.639,137.455 196.133,112.169 202.795,103.529 L202.777,103.515 L263.79,24.344 C268.787,17.853 267.579,8.54 261.089,3.541 Z" id="Shape" fill="#FFB69E"></path>
            <path d="M141.039,243.524 L141.039,397.743 C141.039,407.573 149.008,415.542 158.839,415.542 C168.67,415.542 176.639,407.573 176.639,397.743 L176.639,243.524 L141.039,243.524 Z" id="Shape" fill="#414B82"></path>
            <path d="M98.072,243.524 L98.072,397.743 C98.072,407.573 106.041,415.542 115.872,415.542 C125.703,415.542 133.672,407.573 133.672,397.743 L133.672,243.524 L98.072,243.524 Z" id="Shape" fill="#5F6E9B"></path>
            <path d="M202.794,103.528 L179.352,85.347 L157.8,113.326 L150.307,113.326 C150.116,120.986 143.568,127.437 135.872,127.437 C128.149,127.437 121.628,121.013 121.437,113.326 L110.895,113.326 L77.207,102.246 L67.025,130.125 L98.071,141.338 L98.071,255.471 L176.637,255.471 L176.637,137.454 C176.638,137.454 196.133,112.168 202.794,103.528 Z" id="Shape" fill="#64AFFF"></path>
            <circle id="Oval" fill="#FFB69E" cx="137.192" cy="72.787" r="30.741"></circle>
            <path d="M372.996,243.844 L372.996,397.743 C372.996,407.573 380.965,415.542 390.796,415.542 C400.627,415.542 408.596,407.573 408.596,397.743 L408.596,243.844 L372.996,243.844 Z" id="Shape" fill="#414B82"></path>
            <path d="M330.029,243.844 L330.029,397.743 C330.029,407.573 337.998,415.542 347.829,415.542 C357.66,415.542 365.629,407.573 365.629,397.743 L365.629,243.844 L330.029,243.844 Z" id="Shape" fill="#5F6E9B"></path>
            <path d="M506.513,100.093 C500.318,95.052 491.16,96.08 485.835,102.032 L452.83,138.915 C450.552,137.491 427.93,124.453 415.951,117.559 C411.132,114.785 405.672,113.327 400.111,113.327 L348.55,113.327 L266.063,6.24 C261.065,-0.25 251.753,-1.459 245.261,3.541 C238.771,8.54 237.563,17.853 242.562,24.343 L330.029,140.903 L330.029,255.472 L408.595,255.472 L408.595,148.559 C408.595,148.559 443.856,168.463 447.324,170.717 C453.509,174.734 461.623,173.575 466.459,168.17 L508.22,121.503 C513.841,115.221 513.127,105.474 506.513,100.093 Z" id="Shape" fill="#BA6746"></path>
            <path d="M415.951,117.559 C411.132,114.785 405.672,113.327 400.111,113.327 L383.036,113.327 C383.02,121.041 376.456,127.596 368.74,127.596 C360.995,127.596 354.46,121.068 354.444,113.327 L348.55,113.327 L326.588,84.814 L303.875,106.047 L330.031,140.902 L330.031,255.471 L408.597,255.471 L408.597,148.559 C408.597,148.559 418.368,154.075 428.128,159.628 L442.541,132.9 C435.16,128.633 421.872,120.967 415.951,117.559 Z" id="Shape" fill="#CD2D23"></path>
            <path d="M415.951,117.559 C411.132,114.785 405.672,113.327 400.111,113.327 L383.036,113.327 C383.02,121.041 376.456,127.596 368.74,127.596 C368.73,127.596 368.72,127.595 368.71,127.595 L368.71,255.472 L408.596,255.472 L408.596,148.559 C408.596,148.559 418.367,154.075 428.127,159.628 L442.54,132.9 C435.16,128.633 421.872,120.967 415.951,117.559 Z" id="Shape" fill="#B71D1A"></path>
            <circle id="Oval" fill="#BA6746" cx="369.154" cy="72.787" r="30.741"></circle>
            <path d="M179.353,85.347 L157.801,113.326 L150.308,113.326 C150.128,120.543 144.302,126.682 137.193,127.368 L137.193,255.471 L176.638,255.471 L176.638,137.455 C176.638,137.455 196.132,112.169 202.794,103.529 L179.353,85.347 Z" id="Shape" fill="#52A1E8"></path>
        </g>
    </g>
</svg>
